<?xml version="1.0" encoding="utf-8" ?>
<svg baseProfile="tiny" height="972.0" version="1.2" width="972.0" xmlns="http://www.w3.org/2000/svg" xmlns:ev="http://www.w3.org/2001/xml-events" xmlns:xlink="http://www.w3.org/1999/xlink"><defs /><g><g><text font-family="Arial" font-size="13.5" text-anchor="start" transform="rotate(270,690.75, 209.25)" x="690.75" y="209.25">37</text><rect fill="white" height="27.0" stroke="black" stroke-width="1" width="13.5" x="677.25" y="216.0" /><text font-family="Arial" font-size="13.5" text-anchor="start" transform="rotate(270,690.75, 182.25)" x="690.75" y="182.25">P0.25</text></g><g><text font-family="Arial" font-size="13.5" text-anchor="start" transform="rotate(270,654.75, 209.25)" x="654.75" y="209.25">38</text><rect fill="white" height="27.0" stroke="black" stroke-width="1" width="13.5" x="641.25" y="216.0" /><text font-family="Arial" font-size="13.5" text-anchor="start" transform="rotate(270,654.75, 182.25)" x="654.75" y="182.25">P0.26</text></g><g><text font-family="Arial" font-size="13.5" text-anchor="start" transform="rotate(270,618.75, 209.25)" x="618.75" y="209.25">39</text><rect fill="white" height="27.0" stroke="black" stroke-width="1" width="13.5" x="605.25" y="216.0" /><text font-family="Arial" font-size="13.5" text-anchor="start" transform="rotate(270,618.75, 182.25)" x="618.75" y="182.25">P0.27</text></g><g><text font-family="Arial" font-size="13.5" text-anchor="start" transform="rotate(270,582.75, 209.25)" x="582.75" y="209.25">40</text><rect fill="white" height="27.0" stroke="black" stroke-width="1" width="13.5" x="569.25" y="216.0" /><text font-family="Arial" font-size="13.5" text-anchor="start" transform="rotate(270,582.75, 182.25)" x="582.75" y="182.25">P0.28</text></g><g><text font-family="Arial" font-size="13.5" text-anchor="start" transform="rotate(270,546.75, 209.25)" x="546.75" y="209.25">41</text><rect fill="white" height="27.0" stroke="black" stroke-width="1" width="13.5" x="533.25" y="216.0" /><text font-family="Arial" font-size="13.5" text-anchor="start" transform="rotate(270,546.75, 182.25)" x="546.75" y="182.25">P0.29</text></g><g><text font-family="Arial" font-size="13.5" text-anchor="start" transform="rotate(270,510.75, 209.25)" x="510.75" y="209.25">42</text><rect fill="white" height="27.0" stroke="black" stroke-width="1" width="13.5" x="497.25" y="216.0" /><text font-family="Arial" font-size="13.5" text-anchor="start" transform="rotate(270,510.75, 182.25)" x="510.75" y="182.25">P0.30</text></g><g><text font-family="Arial" font-size="13.5" text-anchor="start" transform="rotate(270,474.75, 209.25)" x="474.75" y="209.25">43</text><rect fill="white" height="27.0" stroke="black" stroke-width="1" width="13.5" x="461.25" y="216.0" /><text font-family="Arial" font-size="13.5" text-anchor="start" transform="rotate(270,474.75, 182.25)" x="474.75" y="182.25">P0.31</text></g><g><text font-family="Arial" font-size="13.5" text-anchor="start" transform="rotate(270,438.75, 209.25)" x="438.75" y="209.25">44</text><rect fill="white" height="27.0" stroke="black" stroke-width="1" width="13.5" x="425.25" y="216.0" /><text font-family="Arial" font-size="13.5" text-anchor="start" transform="rotate(270,438.75, 182.25)" x="438.75" y="182.25">NC</text></g><g><text font-family="Arial" font-size="13.5" text-anchor="start" transform="rotate(270,402.75, 209.25)" x="402.75" y="209.25">45</text><rect fill="white" height="27.0" stroke="black" stroke-width="1" width="13.5" x="389.25" y="216.0" /><text font-family="Arial" font-size="13.5" text-anchor="start" transform="rotate(270,402.75, 182.25)" x="402.75" y="182.25">VSS</text></g><g><text font-family="Arial" font-size="13.5" text-anchor="start" transform="rotate(270,366.75, 209.25)" x="366.75" y="209.25">46</text><rect fill="white" height="27.0" stroke="black" stroke-width="1" width="13.5" x="353.25" y="216.0" /><text font-family="Arial" font-size="13.5" text-anchor="start" transform="rotate(270,366.75, 182.25)" x="366.75" y="182.25">DEC4</text></g><g><text font-family="Arial" font-size="13.5" text-anchor="start" transform="rotate(270,330.75, 209.25)" x="330.75" y="209.25">47</text><rect fill="white" height="27.0" stroke="black" stroke-width="1" width="13.5" x="317.25" y="216.0" /><text font-family="Arial" font-size="13.5" text-anchor="start" transform="rotate(270,330.75, 182.25)" x="330.75" y="182.25">DCC</text></g><g><text font-family="Arial" font-size="13.5" text-anchor="start" transform="rotate(270,294.75, 209.25)" x="294.75" y="209.25">48</text><rect fill="white" height="27.0" stroke="black" stroke-width="1" width="13.5" x="281.25" y="216.0" /><text font-family="Arial" font-size="13.5" text-anchor="start" transform="rotate(270,294.75, 182.25)" x="294.75" y="182.25">VDD</text></g></g><g><g><text font-family="Arial" font-size="13.5" text-anchor="end" transform="rotate(270,690.75, 762.75)" x="690.75" y="762.75">24</text><rect fill="white" height="27.0" stroke="black" stroke-width="1" width="13.5" x="677.25" y="729.0" /><text font-family="Arial" font-size="13.5" text-anchor="end" transform="rotate(270,690.75, 789.75)" x="690.75" y="789.75">P0.21</text></g><g><text font-family="Arial" font-size="13.5" text-anchor="end" transform="rotate(270,654.75, 762.75)" x="654.75" y="762.75">23</text><rect fill="white" height="27.0" stroke="black" stroke-width="1" width="13.5" x="641.25" y="729.0" /><text font-family="Arial" font-size="13.5" text-anchor="end" transform="rotate(270,654.75, 789.75)" x="654.75" y="789.75">P0.20</text></g><g><text font-family="Arial" font-size="13.5" text-anchor="end" transform="rotate(270,618.75, 762.75)" x="618.75" y="762.75">22</text><rect fill="white" height="27.0" stroke="black" stroke-width="1" width="13.5" x="605.25" y="729.0" /><text font-family="Arial" font-size="13.5" text-anchor="end" transform="rotate(270,618.75, 789.75)" x="618.75" y="789.75">P0.19</text></g><g><text font-family="Arial" font-size="13.5" text-anchor="end" transform="rotate(270,582.75, 762.75)" x="582.75" y="762.75">21</text><rect fill="white" height="27.0" stroke="black" stroke-width="1" width="13.5" x="569.25" y="729.0" /><text font-family="Arial" font-size="13.5" text-anchor="end" transform="rotate(270,582.75, 789.75)" x="582.75" y="789.75">P0.18</text></g><g><text font-family="Arial" font-size="13.5" text-anchor="end" transform="rotate(270,546.75, 762.75)" x="546.75" y="762.75">20</text><rect fill="white" height="27.0" stroke="black" stroke-width="1" width="13.5" x="533.25" y="729.0" /><text font-family="Arial" font-size="13.5" text-anchor="end" transform="rotate(270,546.75, 789.75)" x="546.75" y="789.75">P0.17</text></g><g><text font-family="Arial" font-size="13.5" text-anchor="end" transform="rotate(270,510.75, 762.75)" x="510.75" y="762.75">19</text><rect fill="white" height="27.0" stroke="black" stroke-width="1" width="13.5" x="497.25" y="729.0" /><text font-family="Arial" font-size="13.5" text-anchor="end" transform="rotate(270,510.75, 789.75)" x="510.75" y="789.75">P0.16</text></g><g><text font-family="Arial" font-size="13.5" text-anchor="end" transform="rotate(270,474.75, 762.75)" x="474.75" y="762.75">18</text><rect fill="white" height="27.0" stroke="black" stroke-width="1" width="13.5" x="461.25" y="729.0" /><text font-family="Arial" font-size="13.5" text-anchor="end" transform="rotate(270,474.75, 789.75)" x="474.75" y="789.75">P0.15</text></g><g><text font-family="Arial" font-size="13.5" text-anchor="end" transform="rotate(270,438.75, 762.75)" x="438.75" y="762.75">17</text><rect fill="white" height="27.0" stroke="black" stroke-width="1" width="13.5" x="425.25" y="729.0" /><text font-family="Arial" font-size="13.5" text-anchor="end" transform="rotate(270,438.75, 789.75)" x="438.75" y="789.75">P0.14</text></g><g><text font-family="Arial" font-size="13.5" text-anchor="end" transform="rotate(270,402.75, 762.75)" x="402.75" y="762.75">16</text><rect fill="white" height="27.0" stroke="black" stroke-width="1" width="13.5" x="389.25" y="729.0" /><text font-family="Arial" font-size="13.5" text-anchor="end" transform="rotate(270,402.75, 789.75)" x="402.75" y="789.75">P0.13</text></g><g><text font-family="Arial" font-size="13.5" text-anchor="end" transform="rotate(270,366.75, 762.75)" x="366.75" y="762.75">15</text><rect fill="white" height="27.0" stroke="black" stroke-width="1" width="13.5" x="353.25" y="729.0" /><text font-family="Arial" font-size="13.5" text-anchor="end" transform="rotate(270,366.75, 789.75)" x="366.75" y="789.75">P0.12</text></g><g><text font-family="Arial" font-size="13.5" text-anchor="end" transform="rotate(270,330.75, 762.75)" x="330.75" y="762.75">14</text><rect fill="white" height="27.0" stroke="black" stroke-width="1" width="13.5" x="317.25" y="729.0" /><text font-family="Arial" font-size="13.5" text-anchor="end" transform="rotate(270,330.75, 789.75)" x="330.75" y="789.75">P0.11</text></g><g><text font-family="Arial" font-size="13.5" text-anchor="end" transform="rotate(270,294.75, 762.75)" x="294.75" y="762.75">13</text><rect fill="white" height="27.0" stroke="black" stroke-width="1" width="13.5" x="281.25" y="729.0" /><text font-family="Arial" font-size="13.5" text-anchor="end" transform="rotate(270,294.75, 789.75)" x="294.75" y="789.75">VDD</text></g></g><g><g><text font-family="Arial" font-size="13.5" text-anchor="end" transform="rotate(0,209.25, 294.75)" x="209.25" y="294.75">1</text><rect fill="white" height="13.5" stroke="black" stroke-width="1" width="27.0" x="216.0" y="281.25" /><text font-family="Arial" font-size="13.5" text-anchor="end" transform="rotate(0,182.25, 294.75)" x="182.25" y="294.75">DEC1</text></g><g><text font-family="Arial" font-size="13.5" text-anchor="end" transform="rotate(0,209.25, 330.75)" x="209.25" y="330.75">2</text><rect fill="white" height="13.5" stroke="black" stroke-width="1" width="27.0" x="216.0" y="317.25" /><text font-family="Arial" font-size="13.5" text-anchor="end" transform="rotate(0,182.25, 330.75)" x="182.25" y="330.75">P0.00</text></g><g><text font-family="Arial" font-size="13.5" text-anchor="end" transform="rotate(0,209.25, 366.75)" x="209.25" y="366.75">3</text><rect fill="white" height="13.5" stroke="black" stroke-width="1" width="27.0" x="216.0" y="353.25" /><text font-family="Arial" font-size="13.5" text-anchor="end" transform="rotate(0,182.25, 366.75)" x="182.25" y="366.75">P0.01</text></g><g><text font-family="Arial" font-size="13.5" text-anchor="end" transform="rotate(0,209.25, 402.75)" x="209.25" y="402.75">4</text><rect fill="white" height="13.5" stroke="black" stroke-width="1" width="27.0" x="216.0" y="389.25" /><text font-family="Arial" font-size="13.5" text-anchor="end" transform="rotate(0,182.25, 402.75)" x="182.25" y="402.75">P0.02</text></g><g><text font-family="Arial" font-size="13.5" text-anchor="end" transform="rotate(0,209.25, 438.75)" x="209.25" y="438.75">5</text><rect fill="white" height="13.5" stroke="black" stroke-width="1" width="27.0" x="216.0" y="425.25" /><text font-family="Arial" font-size="13.5" text-anchor="end" transform="rotate(0,182.25, 438.75)" x="182.25" y="438.75">P0.03</text></g><g><text font-family="Arial" font-size="13.5" text-anchor="end" transform="rotate(0,209.25, 474.75)" x="209.25" y="474.75">6</text><rect fill="white" height="13.5" stroke="black" stroke-width="1" width="27.0" x="216.0" y="461.25" /><text font-family="Arial" font-size="13.5" text-anchor="end" transform="rotate(0,182.25, 474.75)" x="182.25" y="474.75">P0.04</text></g><g><text font-family="Arial" font-size="13.5" text-anchor="end" transform="rotate(0,209.25, 510.75)" x="209.25" y="510.75">7</text><rect fill="white" height="13.5" stroke="black" stroke-width="1" width="27.0" x="216.0" y="497.25" /><text font-family="Arial" font-size="13.5" text-anchor="end" transform="rotate(0,182.25, 510.75)" x="182.25" y="510.75">P0.05</text></g><g><text font-family="Arial" font-size="13.5" text-anchor="end" transform="rotate(0,209.25, 546.75)" x="209.25" y="546.75">8</text><rect fill="white" height="13.5" stroke="black" stroke-width="1" width="27.0" x="216.0" y="533.25" /><text font-family="Arial" font-size="13.5" text-anchor="end" transform="rotate(0,182.25, 546.75)" x="182.25" y="546.75">P0.06</text></g><g><text font-family="Arial" font-size="13.5" text-anchor="end" transform="rotate(0,209.25, 582.75)" x="209.25" y="582.75">9</text><rect fill="white" height="13.5" stroke="black" stroke-width="1" width="27.0" x="216.0" y="569.25" /><text font-family="Arial" font-size="13.5" text-anchor="end" transform="rotate(0,182.25, 582.75)" x="182.25" y="582.75">P0.07</text></g><g><text font-family="Arial" font-size="13.5" text-anchor="end" transform="rotate(0,209.25, 618.75)" x="209.25" y="618.75">10</text><rect fill="white" height="13.5" stroke="black" stroke-width="1" width="27.0" x="216.0" y="605.25" /><text font-family="Arial" font-size="13.5" text-anchor="end" transform="rotate(0,182.25, 618.75)" x="182.25" y="618.75">P0.08</text></g><g><text font-family="Arial" font-size="13.5" text-anchor="end" transform="rotate(0,209.25, 654.75)" x="209.25" y="654.75">11</text><rect fill="white" height="13.5" stroke="black" stroke-width="1" width="27.0" x="216.0" y="641.25" /><text font-family="Arial" font-size="13.5" text-anchor="end" transform="rotate(0,182.25, 654.75)" x="182.25" y="654.75">P0.09</text></g><g><text font-family="Arial" font-size="13.5" text-anchor="end" transform="rotate(0,209.25, 690.75)" x="209.25" y="690.75">12</text><rect fill="white" height="13.5" stroke="black" stroke-width="1" width="27.0" x="216.0" y="677.25" /><text font-family="Arial" font-size="13.5" text-anchor="end" transform="rotate(0,182.25, 690.75)" x="182.25" y="690.75">P0.10</text></g></g><g><g><text font-family="Arial" font-size="13.5" text-anchor="start" transform="rotate(0,762.75, 294.75)" x="762.75" y="294.75">36</text><rect fill="white" height="13.5" stroke="black" stroke-width="1" width="27.0" x="729.0" y="281.25" /><text font-family="Arial" font-size="13.5" text-anchor="start" transform="rotate(0,789.75, 294.75)" x="789.75" y="294.75">VDD</text></g><g><text font-family="Arial" font-size="13.5" text-anchor="start" transform="rotate(0,762.75, 330.75)" x="762.75" y="330.75">35</text><rect fill="white" height="13.5" stroke="black" stroke-width="1" width="27.0" x="729.0" y="317.25" /><text font-family="Arial" font-size="13.5" text-anchor="start" transform="rotate(0,789.75, 330.75)" x="789.75" y="330.75">XC2</text></g><g><text font-family="Arial" font-size="13.5" text-anchor="start" transform="rotate(0,762.75, 366.75)" x="762.75" y="366.75">34</text><rect fill="white" height="13.5" stroke="black" stroke-width="1" width="27.0" x="729.0" y="353.25" /><text font-family="Arial" font-size="13.5" text-anchor="start" transform="rotate(0,789.75, 366.75)" x="789.75" y="366.75">XC1</text></g><g><text font-family="Arial" font-size="13.5" text-anchor="start" transform="rotate(0,762.75, 402.75)" x="762.75" y="402.75">33</text><rect fill="white" height="13.5" stroke="black" stroke-width="1" width="27.0" x="729.0" y="389.25" /><text font-family="Arial" font-size="13.5" text-anchor="start" transform="rotate(0,789.75, 402.75)" x="789.75" y="402.75">DEC3</text></g><g><text font-family="Arial" font-size="13.5" text-anchor="start" transform="rotate(0,762.75, 438.75)" x="762.75" y="438.75">32</text><rect fill="white" height="13.5" stroke="black" stroke-width="1" width="27.0" x="729.0" y="425.25" /><text font-family="Arial" font-size="13.5" text-anchor="start" transform="rotate(0,789.75, 438.75)" x="789.75" y="438.75">DEC2</text></g><g><text font-family="Arial" font-size="13.5" text-anchor="start" transform="rotate(0,762.75, 474.75)" x="762.75" y="474.75">31</text><rect fill="white" height="13.5" stroke="black" stroke-width="1" width="27.0" x="729.0" y="461.25" /><text font-family="Arial" font-size="13.5" text-anchor="start" transform="rotate(0,789.75, 474.75)" x="789.75" y="474.75">VSS</text></g><g><text font-family="Arial" font-size="13.5" text-anchor="start" transform="rotate(0,762.75, 510.75)" x="762.75" y="510.75">30</text><rect fill="white" height="13.5" stroke="black" stroke-width="1" width="27.0" x="729.0" y="497.25" /><text font-family="Arial" font-size="13.5" text-anchor="start" transform="rotate(0,789.75, 510.75)" x="789.75" y="510.75">ANT</text></g><g><text font-family="Arial" font-size="13.5" text-anchor="start" transform="rotate(0,762.75, 546.75)" x="762.75" y="546.75">29</text><rect fill="white" height="13.5" stroke="black" stroke-width="1" width="27.0" x="729.0" y="533.25" /><text font-family="Arial" font-size="13.5" text-anchor="start" transform="rotate(0,789.75, 546.75)" x="789.75" y="546.75">P0.24</text></g><g><text font-family="Arial" font-size="13.5" text-anchor="start" transform="rotate(0,762.75, 582.75)" x="762.75" y="582.75">28</text><rect fill="white" height="13.5" stroke="black" stroke-width="1" width="27.0" x="729.0" y="569.25" /><text font-family="Arial" font-size="13.5" text-anchor="start" transform="rotate(0,789.75, 582.75)" x="789.75" y="582.75">P0.23</text></g><g><text font-family="Arial" font-size="13.5" text-anchor="start" transform="rotate(0,762.75, 618.75)" x="762.75" y="618.75">27</text><rect fill="white" height="13.5" stroke="black" stroke-width="1" width="27.0" x="729.0" y="605.25" /><text font-family="Arial" font-size="13.5" text-anchor="start" transform="rotate(0,789.75, 618.75)" x="789.75" y="618.75">P0.22</text></g><g><text font-family="Arial" font-size="13.5" text-anchor="start" transform="rotate(0,762.75, 654.75)" x="762.75" y="654.75">26</text><rect fill="white" height="13.5" stroke="black" stroke-width="1" width="27.0" x="729.0" y="641.25" /><text font-family="Arial" font-size="13.5" text-anchor="start" transform="rotate(0,789.75, 654.75)" x="789.75" y="654.75">SWDIO</text></g><g><text font-family="Arial" font-size="13.5" text-anchor="start" transform="rotate(0,762.75, 690.75)" x="762.75" y="690.75">25</text><rect fill="white" height="13.5" stroke="black" stroke-width="1" width="27.0" x="729.0" y="677.25" /><text font-family="Arial" font-size="13.5" text-anchor="start" transform="rotate(0,789.75, 690.75)" x="789.75" y="690.75">SWDCLK</text></g></g><g><rect fill="none" height="540" stroke="black" stroke-width="3" width="540" x="216.0" y="216.0" /><text font-family="Arial" font-size="54.0" text-anchor="middle" x="486.0" y="486.0">nRF52832</text><text font-family="Arial" font-size="40.5" text-anchor="middle" x="486.0" y="540.0">QFN48_6x6</text></g></svg>